<svg width="242" height="224" viewBox="0 0 242 224" fill="none" xmlns="http://www.w3.org/2000/svg">
<g clip-path="url(#clip0_2_39)">
<rect width="242" height="224" rx="25" fill="white"/>
<path fill-rule="evenodd" clip-rule="evenodd" d="M0 0H242V224H0V0Z" fill="#F7DF1E"/>
<path fill-rule="evenodd" clip-rule="evenodd" d="M63.6313 187.195L82.1437 176.823C85.7083 182.693 88.9578 187.651 96.7567 187.651C104.221 187.651 108.947 184.953 108.947 174.417V102.831H131.694V174.708C131.694 196.51 117.888 206.427 97.7414 206.427C79.5441 206.427 68.9881 197.714 63.6313 187.195ZM144.042 184.935L162.554 175.018C167.438 182.383 173.76 187.797 184.966 187.797C194.38 187.797 200.406 183.44 200.406 177.424C200.406 170.206 194.242 167.654 183.844 163.443L178.152 161.182C161.747 154.711 150.856 146.599 150.856 129.464C150.856 113.677 163.854 101.646 184.159 101.646C198.614 101.646 209.013 106.313 216.477 118.49L198.772 129.008C194.872 122.536 190.658 119.984 184.159 119.984C177.502 119.984 173.268 123.885 173.268 129.008C173.268 135.315 177.482 137.885 187.231 141.786L192.923 144.047C212.262 151.721 223.133 159.542 223.133 177.133C223.133 196.073 207.043 206.445 185.439 206.445C164.347 206.445 150.699 197.112 144.042 184.935Z" fill="black"/>
</g>
<defs>
<clipPath id="clip0_2_39">
<rect width="242" height="224" rx="25" fill="white"/>
</clipPath>
</defs>
</svg>
