<svg width="170" height="303" viewBox="0 0 170 303" fill="none" xmlns="http://www.w3.org/2000/svg">
<g clip-path="url(#clip0_2_43)">
<path d="M83.8163 0.829468L93.9161 16.0166C96.187 18.8186 98.6481 21.3002 101.544 23.6113C110 30.3811 118.03 37.4714 125.246 45.0661C142.357 63.0552 153.902 83.0328 162.143 104.638C167.088 117.836 169.77 131.376 169.972 145.065C170.798 185.995 153.272 221.14 117.937 250.346C112.166 254.966 105.992 259.245 99.3691 263.052C95.8691 263.052 94.2113 260.902 92.7693 258.925C90.0868 255.298 88.4404 251.16 87.6144 247.042C86.371 242.088 85.5564 237.138 85.9594 232.025V229.716C85.6756 229.223 82.59 1.99526 83.8191 0.83174V0.834013L83.8163 0.829468Z" fill="#599636"/>
<path d="M83.8164 0.325069C83.402 -0.336231 82.9904 0.163721 82.5731 0.486417C82.7747 3.79973 81.3298 6.75399 79.0731 9.57644C76.5893 12.3784 73.3022 14.5305 70.0008 16.8394C51.6718 29.5449 37.243 44.8934 25.6869 62.0577C10.3129 85.16 2.38745 109.917 0.142096 135.982C-0.885488 145.384 3.85787 178.56 7.55944 188.132C17.6593 213.543 35.801 234.836 59.2992 253.316C65.0701 257.766 71.2441 261.893 77.6311 265.861C79.4875 265.861 79.6891 264.536 80.112 263.549C80.921 261.441 81.5484 259.286 81.9685 257.109L86.1072 232.362L83.8136 0.325069H83.8164Z" fill="#6CAC48"/>
<path d="M93.9161 273.103C94.3305 269.315 96.6014 266.172 99.0739 263.038C96.5901 262.215 94.745 260.577 93.3029 258.75C92.0596 257.102 91.032 255.123 90.2287 253.305C87.3418 246.374 86.7287 239.102 85.8998 232.021V227.732C84.8722 228.394 84.6565 234 84.6565 234.834C84.0802 242.299 82.8 249.787 80.9435 257.116C80.3276 260.088 79.916 263.052 77.6309 265.692C77.6309 266.024 77.6309 266.354 77.8324 266.849C81.5453 275.598 82.5644 284.506 83.1889 293.587V296.901C83.1889 300.857 82.9874 300.023 87.092 301.35C88.7469 301.843 90.592 302.011 92.247 302.998C93.4903 302.998 93.6918 302.175 93.6918 301.512L93.0759 296.067V280.879C92.8743 278.227 93.4903 275.596 93.9019 273.117L93.9161 273.103Z" fill="#C2BFBF"/>
</g>
<defs>
<clipPath id="clip0_2_43">
<rect width="170" height="303" fill="white"/>
</clipPath>
</defs>
</svg>
