<svg width="620" height="132" viewBox="0 0 620 132" fill="none" xmlns="http://www.w3.org/2000/svg">
<g clip-path="url(#clip0_2_8)">
<path fill-rule="evenodd" clip-rule="evenodd" d="M412.155 0.0511529H520.146V21.1006H477.303V131.847H455.882V21.1006H412.155V0.0511529ZM610.07 90.6173C609.84 88.2899 608.823 86.4611 607.055 85.1567C605.263 83.8396 602.962 83.1874 600.129 83.1874C598.143 83.1874 596.435 83.5071 595.006 84.1337C593.589 84.7603 592.487 85.6043 591.725 86.6785C590.974 87.7528 590.598 88.9804 590.562 90.3488C590.562 91.4997 590.828 92.4972 591.337 93.3284C591.846 94.1725 592.524 94.8886 593.408 95.4641C594.28 96.0523 595.248 96.5255 596.314 96.9219C597.392 97.3184 598.457 97.6508 599.535 97.9194L604.488 99.1982C606.474 99.6842 608.399 100.336 610.252 101.168C612.093 101.986 613.764 103.022 615.229 104.275C616.694 105.528 617.857 107.037 618.704 108.802C619.564 110.58 620 112.651 620 115.03C620 118.253 619.213 121.079 617.639 123.521C616.052 125.951 613.776 127.857 610.785 129.225C607.806 130.593 604.209 131.284 599.971 131.284C595.878 131.284 592.306 130.619 589.303 129.289C586.287 127.972 583.926 126.041 582.231 123.509C580.536 120.964 579.627 117.869 579.494 114.224H588.891C589.024 116.13 589.605 117.716 590.598 119.007C591.591 120.273 592.899 121.207 594.498 121.846C596.108 122.46 597.912 122.78 599.898 122.78C601.969 122.78 603.798 122.447 605.384 121.795C606.946 121.143 608.181 120.248 609.065 119.058C609.973 117.907 610.421 116.526 610.434 114.953C610.421 113.521 610.01 112.332 609.235 111.385C608.436 110.452 607.334 109.672 605.917 109.032C604.5 108.406 602.841 107.83 600.952 107.332L594.946 105.733C590.611 104.569 587.171 102.792 584.653 100.426C582.134 98.0473 580.887 94.9142 580.887 90.9754C580.887 87.74 581.722 84.901 583.43 82.4712C585.113 80.0415 587.414 78.1488 590.332 76.806C593.263 75.4505 596.568 74.7855 600.262 74.7855C604.004 74.7855 607.285 75.4505 610.119 76.806C612.94 78.1488 615.168 80.0159 616.779 82.4073C618.389 84.7987 619.225 87.5226 619.273 90.6173H610.07ZM561.524 75.5272H571.018V114.135C571.005 117.69 570.279 120.721 568.85 123.278C567.421 125.836 565.423 127.78 562.88 129.148C560.337 130.517 557.358 131.207 553.98 131.207C550.892 131.207 548.119 130.619 545.648 129.468C543.178 128.317 541.216 126.603 539.788 124.34C538.334 122.064 537.62 119.25 537.62 115.861H547.126C547.138 117.345 547.465 118.624 548.07 119.698C548.676 120.772 549.523 121.59 550.589 122.166C551.679 122.741 552.938 123.023 554.343 123.023C555.869 123.023 557.164 122.69 558.23 122.012C559.284 121.347 560.107 120.35 560.664 119.02C561.221 117.703 561.512 116.079 561.524 114.135V75.5272ZM524.966 131.041C523.391 131.041 522.059 130.465 520.945 129.314C519.831 128.176 519.274 126.782 519.286 125.133C519.274 123.534 519.831 122.166 520.945 121.015C522.059 119.864 523.391 119.289 524.966 119.289C526.479 119.289 527.799 119.864 528.913 121.015C530.039 122.166 530.609 123.534 530.621 125.133C530.609 126.22 530.354 127.217 529.821 128.112C529.289 129.02 528.611 129.724 527.751 130.248C526.903 130.772 525.983 131.041 524.966 131.041ZM126.567 130.862L26.7738 0H0V131.795H21.4215V28.1724L100.399 131.847H234.546V110.797H147.977V76.0132H217.593V54.9638H147.977V21.1006H234.546V0.0511529H126.555V21.1006H126.567V130.862ZM317.241 94.2492L303.195 75.8086L260.364 132H288.47L317.241 94.2492ZM288.47 0.115094H260.436L360.847 131.898H388.953L338.748 66.0512L388.88 0.204612L360.847 0.255764L324.713 47.6489L288.47 0.115094Z" fill="black"/>
</g>
<defs>
<clipPath id="clip0_2_8">
<rect width="620" height="132" fill="white"/>
</clipPath>
</defs>
</svg>
