<svg width="263" height="224" viewBox="0 0 263 224" fill="none" xmlns="http://www.w3.org/2000/svg">
<g clip-path="url(#clip0_2_36)">
<path fill-rule="evenodd" clip-rule="evenodd" d="M263 112.031C263 95.3684 241.19 79.5862 207.737 69.7812C215.464 37.173 212.018 11.2379 196.908 2.92717C193.419 0.982546 189.352 0.0614091 184.9 0.0614091V11.504C187.362 11.504 189.352 11.9748 191.022 12.8345C198.32 16.8261 201.466 32.0556 199.005 51.6451C198.406 56.4554 197.443 61.5319 196.265 66.7108C185.757 64.2544 174.285 62.3507 162.235 61.1225C155.001 51.6451 147.488 43.0273 139.933 35.4945C157.398 19.9375 173.792 11.4426 184.943 11.4426V0C170.197 0 150.913 10.0506 131.393 27.4908C111.873 10.153 92.5894 0.204697 77.8427 0.204697V11.6473C88.9294 11.6473 105.388 20.1013 122.875 35.5354C115.362 43.0683 107.871 51.6246 100.744 61.1225C88.6298 62.3507 77.1578 64.2544 66.6489 66.7517C65.4076 61.6343 64.5086 56.6601 63.8665 51.8907C61.341 32.3012 64.4658 17.0717 71.7 13.0187C73.3053 12.0976 75.4028 11.6882 77.8641 11.6882V0.266106C73.3695 0.266106 69.2815 1.18724 65.75 3.13186C50.6823 11.4426 47.3006 37.3367 55.0913 69.8426C21.7026 79.6681 0 95.4093 0 112.031C0 128.693 21.8097 144.475 55.2625 154.28C47.5361 186.888 50.9819 212.824 66.0924 221.134C69.5811 223.079 73.6477 224 78.1637 224C92.9104 224 112.195 213.949 131.714 196.509C151.234 213.847 170.518 223.795 185.264 223.795C189.759 223.795 193.847 222.874 197.378 220.93C212.446 212.619 215.828 186.725 208.037 154.219C241.297 144.434 263 128.632 263 112.031ZM155.942 112.031C155.942 99.0938 144.984 88.5929 131.436 88.5929C117.909 88.5929 106.929 99.0734 106.929 112.031C106.929 124.988 117.888 135.469 131.436 135.469C144.984 135.448 155.942 124.968 155.942 112.031ZM193.205 77.8258C191.214 84.4375 188.753 91.2539 185.971 98.0704C183.766 93.9764 181.476 89.862 178.95 85.7681C176.489 81.6741 173.857 77.6621 171.224 73.7728C178.843 74.8577 186.185 76.1882 193.205 77.8258ZM168.656 132.439C164.482 139.358 160.18 145.929 155.728 152.029C147.745 152.704 139.655 153.052 131.5 153.052C123.41 153.052 115.319 152.684 107.379 152.069C102.927 145.969 98.5822 139.46 94.4086 132.582C90.342 125.868 86.6393 119.052 83.2577 112.174C86.5751 105.296 90.342 98.4388 94.3444 91.7248C98.518 84.806 102.82 78.2352 107.272 72.1352C115.255 71.4597 123.345 71.1118 131.5 71.1118C139.59 71.1118 147.681 71.4802 155.621 72.0943C160.073 78.1943 164.418 84.7036 168.591 91.5815C172.658 98.2955 176.361 105.112 179.742 111.99C176.361 118.847 172.679 125.704 168.656 132.439ZM185.971 125.766C188.86 132.644 191.321 139.501 193.376 146.174C186.356 147.812 178.95 149.204 171.288 150.268C173.921 146.317 176.532 142.264 179.015 138.109C181.455 134.015 183.766 129.86 185.971 125.766ZM131.607 180.461C126.62 175.548 121.633 170.062 116.711 164.065C121.526 164.269 126.47 164.433 131.457 164.433C136.487 164.433 141.474 164.331 146.354 164.065C141.517 170.062 136.53 175.548 131.607 180.461ZM91.7332 150.268C84.1138 149.183 76.7725 147.853 69.7524 146.215C71.7428 139.603 74.2042 132.787 76.9866 125.971C79.1911 130.065 81.4812 134.179 84.0068 138.273C86.5323 142.387 89.1007 146.379 91.7332 150.268ZM131.329 43.58C136.316 48.4927 141.303 53.9786 146.225 59.9762C141.41 59.7715 136.466 59.6078 131.479 59.6078C126.449 59.6078 121.462 59.7101 116.582 59.9762C121.419 53.9786 126.406 48.4927 131.329 43.58ZM91.669 73.7728C89.0365 77.7235 86.4253 81.7765 83.9426 85.9318C81.4812 90.0258 79.1697 94.1402 76.9652 98.2341C74.0758 91.3563 71.6144 84.4989 69.5597 77.8258C76.6013 76.2292 84.0068 74.8577 91.669 73.7728ZM43.1484 137.966C24.164 130.228 11.9001 120.075 11.9001 112.031C11.9001 103.986 24.1854 93.7717 43.1484 86.0956C47.7501 84.1919 52.8012 82.5134 58.0021 80.9167C61.0627 90.9674 65.0865 101.427 70.0734 112.133C65.1507 122.798 61.1698 133.196 58.1733 143.206C52.8654 141.609 47.8143 139.87 43.1484 137.966ZM71.9997 211.227C64.7013 207.235 61.555 192.006 64.0164 172.416C64.6156 167.606 65.5788 162.529 66.7559 157.351C77.2648 159.807 88.7368 161.711 100.787 162.939C108.021 172.416 115.533 181.034 123.089 188.567C105.602 204.103 89.2077 212.619 78.0567 212.619C75.6382 212.557 73.6049 212.107 71.9997 211.227ZM199.155 172.171C201.68 191.76 198.556 206.99 191.321 211.043C189.716 211.964 187.619 212.373 185.157 212.373C174.071 212.373 157.612 203.919 140.125 188.485C147.638 180.952 155.129 172.396 162.256 162.898C174.37 161.67 185.842 159.766 196.351 157.248C197.592 162.427 198.556 167.401 199.155 172.171ZM219.787 137.966C215.186 139.87 210.135 141.548 204.934 143.145C201.873 133.094 197.849 122.634 192.862 111.928C197.785 101.264 201.766 90.865 204.762 80.8553C210.07 82.452 215.1 84.1919 219.83 86.0751C238.815 93.8127 251.079 103.966 251.079 112.01C251.036 120.075 238.772 130.269 219.787 137.966Z" fill="#00D8FF"/>
</g>
<defs>
<clipPath id="clip0_2_36">
<rect width="263" height="224" fill="white"/>
</clipPath>
</defs>
</svg>
