<svg width="259" height="224" viewBox="0 0 259 224" fill="none" xmlns="http://www.w3.org/2000/svg">
<g clip-path="url(#clip0_2_34)">
<path fill-rule="evenodd" clip-rule="evenodd" d="M179.46 156.44C189.018 155.539 196.269 148.032 195.939 139.024C195.611 130.016 187.37 122.81 177.483 122.81H176.824C166.605 123.11 158.696 130.917 159.026 140.225C159.355 144.729 161.333 148.633 164.298 151.335C153.093 171.453 135.954 186.166 110.246 198.477C92.7779 206.885 74.6512 209.888 56.5238 207.786C41.6916 205.984 30.1563 199.979 22.9037 190.069C12.3575 175.356 11.3692 159.442 20.2681 143.528C26.5308 132.117 36.4173 123.71 42.68 119.506C41.3622 115.602 39.3839 108.997 38.3956 104.193C-9.39542 135.722 -4.45058 178.359 10.0506 198.477C20.927 213.491 43.0094 222.799 67.3987 222.799C73.99 222.799 80.5813 222.199 87.1734 220.698C129.361 213.19 161.332 190.37 179.459 156.44H179.46ZM237.468 119.207C212.419 92.4824 175.505 77.7697 133.317 77.7697H128.044C125.078 72.3652 118.815 68.7608 111.894 68.7608H111.235C101.019 69.0609 93.1089 76.8678 93.4375 86.1768C93.767 95.1842 102.006 102.391 111.894 102.391H112.553C119.804 102.09 126.067 97.8868 128.703 92.1815H134.636C159.685 92.1815 183.415 98.7872 204.839 111.699C221.318 121.608 233.183 134.52 239.775 150.133C245.378 162.745 245.048 175.056 239.115 185.566C229.887 201.48 214.396 210.188 193.962 210.188C180.779 210.188 168.254 206.584 161.662 203.881C158.037 206.884 151.445 211.688 146.831 214.692C161.004 220.696 175.506 224 189.348 224C220.989 224 244.39 208.085 253.289 192.171C262.847 174.755 262.187 144.729 237.469 119.207H237.468ZM70.0366 161.543C70.366 170.551 78.6061 177.757 88.4935 177.757H89.1531C99.3707 177.458 107.281 169.65 106.95 160.342C106.622 151.334 98.3808 144.128 88.4935 144.128H87.8346C87.1749 144.128 86.1858 144.128 85.5277 144.427C72.0141 124.009 66.4111 101.791 68.3894 77.7689C69.7064 59.7527 76.2992 44.1389 87.8346 31.2269C97.3925 20.1172 115.849 14.712 128.374 14.4126C163.309 13.8116 178.141 53.4464 179.13 69.3618C183.415 70.2622 190.665 72.3645 195.61 73.8658C191.654 25.2229 158.696 0 127.056 0C97.3925 0 70.0366 19.5176 59.1594 48.3435C43.9985 86.7778 53.8866 123.71 72.3435 152.837C70.6963 154.938 69.7071 158.241 70.0366 161.545V161.544V161.543Z" fill="#764ABC"/>
</g>
<defs>
<clipPath id="clip0_2_34">
<rect width="259" height="224" fill="white"/>
</clipPath>
</defs>
</svg>
